<?xml version="1.0" standalone="no"?>
<!DOCTYPE svg PUBLIC "-//W3C//DTD SVG 20010904//EN"
 "http://www.w3.org/TR/2001/REC-SVG-20010904/DTD/svg10.dtd">
<svg version="1.0" xmlns="http://www.w3.org/2000/svg"
 width="665.000000pt" height="260.000000pt" viewBox="0 0 665.000000 260.000000"
 preserveAspectRatio="xMidYMid meet">

<g transform="translate(0.000000,260.000000) scale(0.100000,-0.100000)"
 fill="#8A7D63" stroke="none">
<path d="M1000 2105 l-135 -135 -217 0 -218 0 0 -219 0 -218 -132 -128 -133
-128 132 -132 133 -133 0 -216 0 -216 215 0 216 0 136 -135 c75 -74 138 -134
139 -133 1 2 63 63 137 135 l134 133 217 0 217 0 -1 217 -1 216 130 131 c109
109 128 134 120 149 -5 9 -14 17 -19 17 -5 0 -59 51 -120 113 l-111 113 -2
214 -2 215 -215 3 -215 2 -135 135 -135 135 -135 -135z m237 -67 c51 -51 93
-96 93 -100 0 -7 -148 -157 -184 -187 -15 -13 -26 -5 -112 80 -52 51 -94 98
-94 104 0 13 182 195 195 195 5 0 51 -42 102 -92z m-425 -260 c-1 -68 -4 -132
-7 -143 -8 -36 -37 -44 -172 -46 l-128 -1 -3 156 -3 156 158 0 158 0 -3 -122z
m958 -33 l0 -155 -132 0 c-143 1 -159 5 -178 54 -5 15 -10 79 -10 142 l0 114
160 0 160 0 0 -155z m-770 30 l94 -94 -39 -88 c-21 -48 -69 -151 -105 -228
-37 -77 -80 -169 -95 -205 -40 -90 -51 -106 -90 -124 -43 -21 -235 -23 -235
-3 0 7 36 48 80 92 85 85 98 113 86 181 -6 27 -27 56 -87 116 -43 44 -79 84
-79 89 0 5 48 9 108 9 134 0 161 -13 199 -98 23 -54 26 -56 39 -37 29 39 28
64 -6 118 l-32 52 21 37 c18 32 21 53 21 157 0 91 3 121 13 121 7 0 55 -43
107 -95z m392 -39 c3 -116 6 -137 23 -156 16 -17 17 -24 7 -38 -7 -9 -22 -36
-34 -59 -22 -42 -22 -43 -3 -80 l18 -38 24 52 c13 29 37 63 54 77 29 25 37 26
145 26 63 0 114 -3 114 -8 0 -4 -32 -39 -71 -77 -138 -137 -140 -176 -13 -305
46 -48 84 -92 84 -98 0 -9 -30 -12 -103 -12 -161 0 -153 -7 -275 250 -123 261
-182 391 -182 404 0 14 182 196 196 196 9 0 13 -40 16 -134z m-188 -287 c31
-70 56 -130 56 -133 0 -3 -40 -6 -90 -6 -78 0 -91 -2 -100 -19 -20 -38 -13
-40 111 -43 l121 -3 47 -103 c25 -56 54 -111 64 -122 9 -11 17 -23 17 -27 0
-3 -8 -15 -17 -26 -15 -16 -19 -43 -21 -158 -2 -76 -8 -139 -13 -139 -11 0
-199 187 -199 198 0 5 23 59 51 122 l51 113 -18 39 -17 38 -19 -30 c-10 -17
-18 -36 -19 -43 -1 -21 -63 -140 -75 -144 -6 -2 -18 14 -27 35 -8 21 -30 71
-48 110 l-33 71 -18 -30 c-10 -16 -18 -36 -18 -45 0 -13 44 -116 87 -202 l17
-33 -99 -99 c-55 -55 -103 -100 -107 -100 -5 0 -8 56 -8 126 0 111 -2 129 -22
164 l-23 39 23 23 c12 14 22 27 22 30 0 4 23 55 51 115 95 201 126 268 154
333 33 76 45 94 56 83 4 -4 33 -65 63 -134z m-646 -73 c45 -46 82 -90 82 -97
0 -8 -8 -25 -18 -39 -20 -29 -150 -160 -159 -160 -9 0 -193 183 -193 192 0 12
183 187 196 188 6 0 47 -38 92 -84z m1346 -3 c50 -48 93 -91 95 -96 4 -9 -183
-197 -197 -197 -4 0 -45 38 -90 84 -58 59 -82 91 -82 108 0 18 23 48 83 107
45 44 86 81 91 81 5 0 50 -39 100 -87z m-1140 -423 c14 -5 29 -17 35 -27 5
-11 11 -77 12 -148 l2 -130 -156 -3 -157 -3 0 161 0 160 119 0 c66 0 131 -4
145 -10z m1004 -153 l3 -158 -158 3 -158 3 0 133 0 134 28 24 c28 24 34 24
155 22 l127 -3 3 -158z m-438 -190 c0 -12 -184 -197 -196 -197 -12 0 -194 182
-194 195 0 5 44 54 97 107 l98 98 97 -97 c54 -54 98 -102 98 -106z"/>
<path d="M2870 1858 c-11 -18 -20 -36 -20 -40 0 -3 -20 -48 -44 -100 -24 -51
-74 -160 -111 -243 -37 -82 -71 -154 -75 -160 -4 -5 -35 -71 -68 -145 -33 -74
-76 -169 -95 -210 -82 -175 -127 -285 -123 -297 4 -9 28 -13 80 -13 68 0 77 2
91 23 8 13 66 135 128 273 110 240 177 385 243 524 30 62 32 64 42 40 5 -14
50 -110 99 -215 50 -104 93 -200 97 -212 l7 -22 -158 -3 -157 -3 -33 -65 c-53
-108 -68 -100 196 -100 171 0 231 -3 238 -12 5 -7 31 -61 57 -120 l49 -108 78
0 c64 0 79 3 79 15 0 9 -36 95 -80 192 -44 98 -80 182 -80 189 0 11 -80 191
-143 319 -18 39 -80 172 -137 298 -111 246 -121 258 -160 195z" fill="#032840"/>
<path d="M3695 1848 c-3 -7 -4 -278 -3 -603 l3 -590 270 0 c302 0 328 4 460
73 223 117 360 396 310 634 -46 222 -181 382 -394 466 -65 26 -71 26 -354 30
-232 3 -288 1 -292 -10z m570 -173 c119 -43 222 -144 262 -258 21 -62 25 -238
5 -303 -18 -63 -85 -158 -141 -202 -93 -73 -140 -86 -348 -90 l-183 -4 0 435
c0 238 3 437 8 441 4 4 84 6 177 3 131 -3 182 -8 220 -22z" fill="#032840"/>
<path d="M4962 1258 l3 -603 410 0 410 0 3 68 c2 42 -2 74 -9 83 -9 11 -67 14
-325 14 l-314 0 0 520 0 520 -90 0 -90 0 2 -602z" fill="#032840"/>
<path d="M6005 1848 c-3 -7 -4 -278 -3 -603 l3 -590 85 0 85 0 3 603 2 602
-85 0 c-59 0 -87 -4 -90 -12z" fill="#032840"/>
</g>
</svg>



