<?xml version="1.0" standalone="no"?>
<!DOCTYPE svg PUBLIC "-//W3C//DTD SVG 20010904//EN"
 "http://www.w3.org/TR/2001/REC-SVG-20010904/DTD/svg10.dtd">
<svg version="1.0" xmlns="http://www.w3.org/2000/svg"
 width="205.000000pt" height="220.000000pt" viewBox="0 -130 205.000000 350.000000" 
 preserveAspectRatio="xMidYMid meet" style="width: 100%; height: auto;">

<g transform="translate(0.000000,220.000000) scale(0.100000,-0.100000)"
fill="#8A7D63" stroke="none">
<path d="M870 1915 l-135 -135 -217 0 -218 0 0 -218 0 -217 -133 -133 -133
-133 133 -133 133 -134 0 -216 0 -216 215 0 216 0 136 -135 c75 -74 138 -134
139 -133 1 2 63 63 137 135 l134 133 217 0 217 0 -1 217 -1 216 132 133 132
132 -132 134 -132 133 -2 215 -2 215 -215 3 -215 2 -135 135 -135 135 -135
-135z m237 -67 c51 -51 93 -96 93 -100 0 -7 -148 -157 -184 -187 -15 -13 -26
-5 -112 80 -52 51 -94 98 -94 104 0 13 182 195 195 195 5 0 51 -42 102 -92z
m-425 -260 c-1 -68 -4 -132 -7 -143 -8 -36 -37 -44 -172 -46 l-128 -1 -3 156
-3 156 158 0 158 0 -3 -122z m958 -33 l0 -155 -132 0 c-143 1 -159 5 -178 54
-5 15 -10 79 -10 142 l0 114 160 0 160 0 0 -155z m-773 33 c51 -51 93 -96 93
-100 0 -10 -255 -574 -274 -608 -27 -46 -70 -60 -183 -60 -75 0 -103 3 -103
12 0 7 36 49 80 93 63 63 82 89 87 117 11 73 -3 104 -88 190 -43 44 -79 84
-79 89 0 5 48 9 108 9 134 0 161 -13 199 -98 23 -54 26 -56 39 -37 29 39 28
64 -6 118 l-32 52 21 37 c18 32 21 53 21 157 0 89 3 121 12 121 7 0 54 -42
105 -92z m395 -42 c3 -116 6 -137 23 -156 16 -17 17 -24 7 -38 -7 -9 -22 -36
-34 -59 -22 -42 -22 -43 -3 -80 l18 -38 24 52 c13 29 37 63 54 77 29 25 37 26
145 26 63 0 114 -3 114 -8 0 -4 -34 -41 -75 -82 -135 -134 -136 -185 -5 -315
44 -44 80 -85 80 -92 0 -10 -26 -13 -103 -13 -130 0 -161 14 -199 91 -35 71
-108 229 -108 234 0 2 -17 41 -39 87 -84 179 -111 241 -111 252 0 14 182 196
196 196 9 0 13 -40 16 -134z m-188 -287 c31 -70 56 -130 56 -133 0 -3 -40 -6
-88 -6 -85 0 -89 -1 -100 -25 -7 -14 -12 -30 -12 -35 0 -5 55 -11 121 -12
l121 -3 47 -103 c25 -56 54 -111 64 -122 9 -11 17 -23 17 -27 0 -3 -8 -15 -17
-26 -15 -16 -19 -43 -21 -158 -2 -76 -8 -139 -13 -139 -11 0 -199 187 -199
198 0 5 23 59 51 122 l51 113 -18 39 -17 38 -19 -30 c-10 -17 -18 -36 -19 -43
-1 -21 -63 -140 -75 -144 -6 -2 -18 14 -27 35 -8 21 -30 71 -48 110 l-33 71
-18 -30 c-10 -16 -18 -36 -18 -45 0 -13 44 -116 87 -202 l17 -33 -99 -99 c-55
-55 -103 -100 -107 -100 -5 0 -8 56 -8 126 0 111 -2 129 -22 164 l-23 39 23
23 c12 14 22 27 22 30 0 4 22 53 49 110 26 56 79 173 116 258 73 166 84 185
96 173 4 -4 33 -65 63 -134z m-652 -66 c86 -88 97 -112 73 -149 -18 -28 -153
-164 -162 -164 -11 0 -193 184 -193 194 0 14 181 196 195 196 6 0 45 -35 87
-77z m1355 -15 c51 -51 93 -97 93 -102 0 -12 -186 -196 -198 -196 -4 0 -45 38
-90 84 -108 110 -108 115 0 223 46 46 87 83 93 83 5 0 51 -42 102 -92z m-1143
-428 c14 -5 29 -17 35 -27 5 -11 11 -77 12 -148 l2 -130 -156 -3 -157 -3 0
161 0 160 119 0 c66 0 131 -4 145 -10z m1004 -153 l3 -158 -158 3 -158 3 0
133 0 134 28 24 c28 24 34 24 155 22 l127 -3 3 -158z m-438 -190 c0 -12 -184
-197 -196 -197 -12 0 -194 182 -194 195 0 5 44 54 97 107 l98 98 97 -97 c54
-54 98 -102 98 -106z"/>
</g>
</svg>
