<?xml version="1.0" standalone="no"?>
<!DOCTYPE svg PUBLIC "-//W3C//DTD SVG 20010904//EN"
 "http://www.w3.org/TR/2001/REC-SVG-20010904/DTD/svg10.dtd">
<svg version="1.0" xmlns="http://www.w3.org/2000/svg"
 width="667.000000pt" height="417.000000pt" viewBox="0 -100 667.000000 500.000000"
 preserveAspectRatio="xMidYMid meet">

<g transform="translate(0.000000,417.000000) scale(0.100000,-0.100000)"
fill="#fff" stroke="none">
<path d="M1610 3858 c-5 -13 -39 -104 -74 -203 -124 -347 -338 -942 -422
-1175 -46 -129 -164 -458 -263 -730 -98 -272 -175 -498 -171 -503 3 -4 122 -6
264 -5 l258 3 129 360 c71 198 193 538 271 755 172 482 158 444 163 439 4 -5
155 -1068 155 -1096 0 -32 19 1 88 152 38 83 126 275 196 428 l128 278 -42
297 c-23 163 -59 425 -81 582 -22 157 -44 320 -50 363 l-11 77 -264 0 -264 0
-10 -22z"/>
<path d="M3153 3787 c-23 -50 -86 -186 -139 -302 -53 -115 -131 -286 -174
-380 -43 -93 -127 -278 -188 -410 -60 -132 -174 -379 -252 -550 -78 -170 -202
-441 -276 -601 -74 -159 -134 -293 -134 -297 0 -4 118 -7 263 -7 l263 0 79
173 c75 164 179 392 463 1009 l127 277 3 -730 2 -729 370 0 370 0 0 -475 0
-475 290 0 290 0 0 475 0 475 395 0 395 0 0 265 0 265 -791 0 -791 0 4 1055 3
1055 -265 0 -265 0 -42 -93z"/>
<path d="M3930 2455 l0 -475 290 0 290 0 0 210 0 210 510 0 510 0 0 265 0 265
-800 0 -800 0 0 -475z"/>
</g>
</svg>
